 <svg version="1.0" xmlns="http://www.w3.org/2000/svg" width="700.000000pt" height="700.000000pt" viewBox="0 0 700.000000 700.000000" preserveAspectRatio="xMidYMid meet">
<metadata>
Created by potrace 1.12, written by Peter Selinger 2001-2015
</metadata>
<g transform="translate(0.000000,700.000000) scale(0.100000,-0.100000)" fill="#000000" stroke="none">
<path d="M2559 6181 c-58 -31 -100 -44 -170 -56 -113 -19 -128 -25 -204 -75
-33 -22 -87 -49 -121 -60 -38 -13 -81 -38 -118 -69 -32 -27 -84 -63 -115 -80
-31 -16 -67 -42 -81 -57 -14 -14 -55 -46 -92 -70 -37 -24 -77 -57 -90 -74 -13
-18 -44 -47 -69 -65 -26 -18 -59 -50 -74 -72 -15 -21 -47 -53 -71 -71 -24 -18
-53 -49 -63 -70 -11 -20 -38 -55 -61 -77 -22 -22 -57 -69 -77 -104 -20 -36
-53 -84 -74 -106 -22 -23 -54 -76 -74 -118 -19 -42 -53 -100 -75 -128 -24 -30
-46 -73 -56 -107 -25 -94 -46 -145 -79 -197 -41 -65 -50 -93 -75 -233 -12 -64
-39 -172 -61 -238 -22 -67 -44 -159 -50 -205 -6 -46 -11 -237 -12 -424 -2
-362 1 -396 49 -550 14 -44 39 -141 54 -215 38 -176 43 -190 83 -263 19 -34
47 -99 62 -145 15 -46 43 -106 62 -135 19 -29 55 -91 79 -138 23 -48 61 -108
84 -134 22 -26 50 -65 61 -88 12 -22 42 -63 68 -91 26 -28 58 -67 73 -86 32
-43 272 -285 359 -361 35 -31 91 -73 124 -94 33 -21 77 -53 97 -71 21 -19 73
-51 115 -73 43 -21 95 -53 116 -69 21 -17 73 -45 115 -62 42 -18 118 -52 167
-76 50 -24 126 -53 170 -64 44 -10 139 -40 210 -64 93 -32 164 -50 250 -61
435 -57 1009 -31 1244 55 46 17 134 44 195 61 61 16 156 52 211 79 55 27 125
58 155 70 30 12 76 37 102 55 26 19 83 53 128 75 44 22 98 56 118 75 21 19 58
45 83 59 24 14 77 53 118 88 98 83 349 332 386 383 16 22 47 60 70 85 23 25
55 68 70 95 15 28 43 67 61 87 19 21 52 75 75 120 23 46 56 104 75 129 18 25
47 86 65 135 17 49 44 113 61 143 42 75 55 115 89 276 16 77 40 174 54 215 42
126 45 170 46 545 0 408 -6 470 -61 640 -21 66 -50 181 -64 255 -16 85 -35
152 -51 180 -53 97 -75 148 -95 217 -14 48 -34 89 -61 122 -22 28 -55 86 -74
128 -20 42 -53 95 -74 119 -22 23 -52 66 -67 96 -14 29 -53 81 -85 115 -33 34
-59 66 -59 71 0 9 -99 110 -269 274 -30 29 -74 65 -98 80 -23 15 -62 45 -85
66 -24 21 -70 53 -103 72 -33 18 -85 52 -115 75 -30 23 -84 52 -119 64 -35 13
-90 40 -124 62 -69 44 -98 54 -215 68 -51 7 -109 22 -151 40 -116 51 -135 51
-441 -14 -63 -13 -155 -31 -205 -38 -63 -10 -78 -15 -50 -16 63 -2 151 -28
255 -76 53 -24 153 -60 224 -79 133 -38 182 -59 253 -108 24 -16 74 -42 113
-57 39 -16 95 -49 126 -73 30 -23 76 -56 102 -71 26 -16 67 -48 92 -71 25 -24
67 -60 94 -80 64 -48 312 -278 350 -325 16 -20 48 -56 71 -81 23 -25 50 -58
60 -75 10 -16 39 -55 65 -85 26 -30 60 -80 75 -110 15 -30 50 -86 76 -125 91
-130 100 -259 22 -311 -18 -12 -63 -29 -100 -38 -37 -10 -110 -35 -161 -57
-52 -22 -152 -55 -223 -74 -71 -19 -171 -52 -222 -74 -50 -21 -139 -51 -197
-67 -58 -15 -148 -45 -200 -67 -52 -21 -151 -54 -220 -72 -69 -18 -169 -51
-224 -73 -54 -23 -150 -55 -213 -72 -63 -16 -155 -48 -205 -70 -101 -46 -168
-58 -219 -41 -40 14 -252 182 -499 396 -41 36 -97 83 -125 105 -57 45 -178
149 -269 230 -53 47 -267 227 -446 375 -27 22 -102 85 -167 140 -65 55 -140
116 -167 135 -116 84 -120 224 -8 301 20 13 65 50 101 82 148 129 169 146 236
193 39 26 89 65 113 85 23 20 73 49 110 64 37 14 105 49 151 77 50 29 124 62
180 79 53 17 141 48 196 71 203 82 278 97 503 100 l137 1 -135 7 c-244 13
-422 38 -544 77 -70 22 -139 37 -186 40 -72 5 -78 3 -151 -36z m-912 -1224
c21 -12 170 -140 282 -243 31 -29 79 -69 108 -91 28 -21 61 -51 73 -66 12 -15
43 -41 68 -59 26 -17 60 -46 75 -65 16 -18 48 -47 73 -63 24 -17 65 -52 92
-78 26 -26 72 -66 102 -90 30 -23 96 -78 145 -122 50 -44 117 -102 150 -128
33 -26 83 -70 110 -98 28 -27 71 -65 97 -82 26 -18 52 -42 58 -52 6 -11 34
-38 63 -59 83 -63 205 -184 217 -216 23 -59 1 -178 -80 -450 -11 -38 -30 -127
-41 -198 -26 -171 -42 -244 -83 -384 -20 -65 -51 -210 -71 -323 -20 -113 -51
-257 -70 -320 -19 -63 -41 -155 -49 -205 -8 -49 -22 -134 -30 -189 -9 -54 -25
-118 -35 -142 -40 -89 -157 -110 -257 -47 -27 17 -89 45 -139 62 -49 18 -112
47 -140 66 -27 18 -82 49 -121 69 -38 19 -95 54 -125 78 -30 25 -79 61 -110
80 -31 20 -63 46 -72 58 -8 11 -37 37 -64 58 -82 62 -305 296 -345 362 -11 19
-39 56 -62 81 -23 26 -61 84 -84 130 -24 46 -58 105 -76 131 -19 26 -44 78
-56 115 -12 38 -44 113 -71 168 -42 85 -54 122 -78 251 -16 82 -41 179 -56
214 -44 105 -55 178 -55 380 1 221 9 295 54 460 19 69 44 177 56 240 17 95 30
131 69 205 26 50 58 121 71 159 12 37 42 97 66 132 24 35 59 96 79 136 45 91
46 92 108 123 55 27 118 32 154 12z m4211 -817 c41 -25 74 -94 107 -223 66
-261 59 -597 -17 -837 -21 -69 -51 -174 -65 -235 -16 -70 -41 -141 -68 -195
-23 -47 -52 -116 -65 -154 -12 -37 -42 -97 -66 -132 -24 -35 -59 -96 -79 -136
-20 -39 -55 -93 -79 -118 -24 -26 -52 -62 -61 -81 -10 -19 -43 -61 -74 -95
-31 -33 -70 -76 -86 -95 -17 -19 -64 -64 -105 -101 -41 -37 -104 -94 -140
-126 -36 -33 -79 -66 -95 -75 -17 -8 -53 -34 -80 -57 -28 -23 -90 -61 -138
-85 -49 -25 -109 -60 -135 -79 -26 -19 -85 -46 -132 -61 -47 -15 -116 -43
-154 -62 -90 -45 -185 -69 -376 -94 -85 -11 -162 -22 -170 -24 -8 -3 -72 -11
-141 -20 -99 -12 -151 -13 -237 -6 -116 11 -157 24 -204 69 -45 42 -52 80 -29
148 12 33 32 132 46 222 28 180 43 248 79 368 22 75 41 173 82 434 9 58 32
157 50 219 20 67 47 201 64 320 48 320 90 471 154 556 35 46 129 91 259 125
63 17 153 48 199 69 45 22 137 53 203 71 66 17 158 49 205 70 47 22 139 53
205 70 66 17 163 51 215 75 52 24 142 55 200 69 58 13 148 45 200 70 53 24
144 56 205 71 60 15 126 34 145 42 111 49 131 51 178 23z"></path>
</g>
</svg>